<?xml version="1.0" standalone="no"?>
<!DOCTYPE svg PUBLIC "-//W3C//DTD SVG 1.1//EN" "http://www.w3.org/Graphics/SVG/1.1/DTD/svg11.dtd" >
<svg xmlns="http://www.w3.org/2000/svg">
<metadata>
This is a custom SVG font generated by IcoMoon.
<iconset grid="16"></iconset>
</metadata>
<defs>
<font id="Asurion" horiz-adv-x="512" >
<font-face units-per-em="512" ascent="480" descent="-32" />
<missing-glyph horiz-adv-x="512" />
<glyph class="hidden" unicode="&#xf000;" d="M0,480L 512 -32L0 -32 z" horiz-adv-x="0" />
<glyph unicode="&#x10ffff;" d="M 181.664,264.608L 120.416,264.608 L 120.416,342.496 C 120.416,418.304, 181.216,480, 256,480s 135.584-61.696, 135.584-137.504l0-77.888 l-61.248,0 L 330.336,342.496 
	c0,41.568-33.376,75.36-74.336,75.36c-40.992,0-74.336-33.824-74.336-75.36L 181.664,264.608 z M 437.344,227.328L 437.344-32 L 74.656-32 L 74.656,227.328 L 437.344,227.328 z M 341.792,137.792
	L 316.352,163.552l-79.104-80.256l-34.24,34.784l-25.44-25.792l 59.68-60.544L 341.792,137.792z" data-tags="validated-lock" />
<glyph unicode="&#xe002;" d="M 197.44,480l0-0.224 L 117.376,400.256l0-274.272 l 31.84,36.672L 149.216,368.576 l 80.096,0 L 229.312,448.32 l 133.44,0 l0-285.984 l 31.872-36.672L 394.624,480 L 197.44,480 z M 136.352,99.328l 89.664,0 L 226.016-32 
			l 59.712,0 l0,131.328 l 89.664,0 L 255.84,236.896L 136.352,99.328z" data-tags="upload" />
<glyph unicode="&#xe003;" d="M 402.816,144.288l 5.76,3.328l0-29.504 l-5.76-3.36L 402.816,144.288 z M 393.056,109.056l 5.728,3.328l0,29.536 l-5.824-3.424L 393.056,109.056z
	 M 435.808,134.048l 5.824,3.424L 441.632,167.008 l-5.824-3.424L 435.808,134.048 z M 512,310.944l0-197.76 l-163.008-95.392l-204.8,119.904l0,197.76 l 163.296,94.784L 512,310.944z
	 M 277.024,377.824l 159.392-94.624l 32.48,18.080L 307.424,395.456L 277.024,377.824z M 333.088,208.512L 173.76,301.248l0-146.272 l 159.328-93.088L 333.088,208.512 z M 380.192,251.904
	L 222.816,346.336L 189.472,327.008l 159.040-92.736L 380.192,251.904z M 482.144,274.272l-28.672-15.968l0-53.6 l-0.224-0.096l0-0.224 L 397.12,173.184L 397.12,173.376 
	l-0.224-0.096L 396.896,226.816 l-33.92-18.88l0-147.2 l 119.168,69.728L 482.144,274.272 L 482.144,274.272z M 416.544,122.816l 5.76,3.328l0,29.536 l-5.76-3.36L 416.544,122.816 z
	 M 450.016,142.4l 4.8,2.816l 0.896,0.544L 455.712,175.264 l-5.728-3.328L 449.984,142.4 z M 426.112,128.448l 5.76,3.328L 431.872,161.28 l-5.76-3.328L 426.112,128.448 z M 20.32,300.992
	l 93.344,0 l0-29.984 L 30.272,271.008 L 20.32,300.992z M0,251.84l 113.696,0 l0-29.984 L 9.952,221.856 L0,251.84z M 60.032,172.704L 50.080,202.688l 63.584,0 l0-29.984 L 60.032,172.704 z" data-tags="track-box" />
<glyph unicode="&#xe004;" d="M 256,480C 114.624,480,0,365.376,0,224s 114.624-256, 256-256c 141.376,0, 256,114.624, 256,256S 397.376,480, 256,480z M 272.928,70.976
	c-7.584-7.328-18.048-10.752-29.856-10.72c-0.096,0-0.192,0-0.288,0c-11.232,0-21.344,3.488-28.768,10.72
	c-7.616,7.232-11.424,17.28-11.36,28.448c-0.064,11.136, 3.744,21.248, 11.424,28.32c 7.52,7.072, 17.696,10.496, 28.992,10.432
	c 11.744,0.064, 22.176-3.296, 29.824-10.432c 7.648-7.072, 11.456-17.184, 11.392-28.32C 284.384,88.256, 280.576,78.176, 272.928,70.976z M 341.44,266.752
	c-3.936-9.92-8.992-18.496-15.104-25.696C 320.448,234.144, 313.984,228.032, 306.88,222.72C 300.512,217.92, 294.656,212.832, 289.376,207.456
	C 284.32,202.208, 280.032,196.224, 276.448,189.28c-3.2-6.048-5.024-14.528-5.024-25.408l0-7.136 L 218.080,156.736 L 211.616,156.736 l-0.608,6.4
	C 210.528,168.224, 210.272,172.992, 210.272,177.6c0,9.152, 0.96,17.504, 3.008,24.992c 2.944,10.752, 7.040,20.16, 12.384,28.288
	C 230.88,238.72, 236.832,245.632, 243.616,251.456c 6.208,5.376, 11.968,10.496, 17.312,15.424c 5.088,4.672, 9.184,9.44, 12.448,14.336
	c 2.752,4.128, 4.192,9.056, 4.256,15.392C 277.536,305.088, 275.36,310.784, 271.36,315.168C 268.224,318.72, 260.672,321.664, 247.648,321.6
	c-3.936,0-8.192-0.416-12.768-1.28C 230.24,319.36, 225.568,318.080, 220.928,316.416C 216.192,314.72, 211.712,312.736, 207.392,310.528
	c-4.352-2.24-8.192-4.512-11.52-6.816L 189.28,299.168L 161.824,351.84L 167.040,355.392C 178.144,363.040, 190.88,369.28, 205.184,374.176
	c 14.688,5.024, 32.064,7.456, 52.032,7.456c 27.168,0, 49.472-6.656, 65.856-20.672c 16.32-13.888, 24.64-33.44, 24.576-56.384
	C 347.616,289.792, 345.664,277.216, 341.44,266.752z" data-tags="tooltip-question" />
<glyph unicode="&#xe005;" d="M 499.104,248.832c0,0-10.176,37.216-30.592,35.616c0,0-110.016-6.464-117.856-8.096c-7.84-1.6-12.096-1.6-27.264,8.096
			c0,0-7.328,9.728, 14.688,42.080c0,0, 26.72,55.040, 32.992,85.824c0,0, 7.84,31.136-34.56,61.888c0,0-20.448,12.96-32.992,0
			c0,0-3.168,15.776-6.272-29.536c0,0-3.168-35.616-26.72-66.368c0,0-49.728-45.344-63.872-82.592c0,0-22.176-58.272-59.52-89.824l0-201.536 
			c0,0, 1.408,15.776, 83.136-14.144c0,0, 56-22.24, 98.4-22.24c0,0, 54.208-0.032, 82.496,0c 28.288,0, 36.896,24.48, 47.904,43.872
			c0,0, 9.44,27.84,0,40.8c0,0, 26.688,11.072, 28.288,34.72c0,0, 4.672,12.416-6.272,33.472c0,0, 14.112,18.848, 17.248,49.92
			c0,0, 4.704,9.44-9.408,21.888C 488.896,192.672, 506.112,229.408, 499.104,248.832z M 14.464,218.784c-15.328-135.456, 28.864-228.768, 28.864-228.768l 87.808,0 
			L 131.136,218.656 C 77.728,225.568, 14.464,218.784, 14.464,218.784z M 89.888,49.856c 9.088,0, 16.48-7.584, 16.48-16.928c0-9.408-7.392-16.96-16.48-16.96
			c-9.088,0-16.448,7.552-16.448,16.96C 73.44,42.24, 80.8,49.856, 89.888,49.856z" data-tags="thumb" />
<glyph unicode="&#xe006;" d="M0,390.112l 298.048,0 l0-259.552 L 162.656,130.56 c-10.624,23.296-34.048,39.52-61.28,39.52c-27.232,0-50.656-16.256-61.28-39.52L0,130.56 L0,390.112 zM 446.496,130.592L 512,130.592 L 512,241.568 l-68.096,75.232l-113.056,0 l0-174.432 c 12.288,16.768, 32.064,27.744, 54.4,27.744
		C 412.448,170.080, 435.872,153.888, 446.496,130.592z M 470.144,198.784l-98.4,0 L 371.744,279.616 l 60.416,0 l 38.016-45.12L 470.176,198.784 zM 340.416,102.688A44.832,44.832 540 1 1 430.080,102.68799999999999A44.832,44.832 540 1 1 340.416,102.68799999999999zM 56.544,102.688A44.832,44.832 540 1 1 146.208,102.68799999999999A44.832,44.832 540 1 1 56.544,102.68799999999999z" data-tags="ship" />
<glyph unicode="&#xe007;" d="M 502.592,243.328l-171.84,145.76C 318.208,399.712, 307.968,394.88, 307.968,378.304c0,0,0-75.008,0-85.952L 228.896,292.352 l0-136.736 l 79.072,0 
			c0-10.944,0-85.952,0-85.952c0-16.576, 10.24-21.44, 22.784-10.784l 171.84,145.76C 515.136,215.296, 515.136,232.704, 502.592,243.328z M0,262.24l0-76.512 
			c0-16.576, 13.408-30.112, 29.76-30.112l 38.016,0 L 67.776,292.352 L 29.76,292.352 C 13.408,292.352,0,278.816,0,262.24z M 119.072,155.616L 177.6,155.616 L 177.6,292.352 L 119.072,292.352 L 119.072,155.616 z" data-tags="resume" />
<glyph unicode="&#xe008;" d="M 358.848,480L 153.152,480 C 133.472,480, 117.536,463.296, 117.536,442.688l0-437.408 C 117.536-15.296, 133.472-32, 153.152-32l 205.696,0 
			c 19.712,0, 35.616,16.704, 35.616,37.28L 394.464,442.688 C 394.464,463.296, 378.56,480, 358.848,480z M 232.736,448.224l 46.528,0 l0-16.16 L 232.736,432.064 L 232.736,448.224 z M 256.032-12.416
			c-12.544,0-22.72,10.624-22.72,23.744s 10.176,23.776, 22.72,23.776s 22.688-10.656, 22.688-23.776S 268.576-12.416, 256.032-12.416z M 367.808,50.112
			L 144.224,50.112 L 144.224,397.888 l 223.584,0 L 367.808,50.112 z M 231.264,288.864c 4.704,7.84, 12.672,11.776, 23.968,11.776c 11.424,0, 19.328-3.2, 23.648-9.568
			s 6.464-13.408, 6.464-21.152c0-6.72-1.952-12.896-5.824-18.496C 277.408,248.16, 274.56,245.184, 271.104,242.432L 260.48,233.696
			C 249.984,225.152, 243.488,217.568, 240.96,211.008C 238.464,204.448, 236.896,192.544, 236.32,175.328L 275.84,175.328 c 0.128,8.192, 0.736,14.176, 1.952,18.048
			C 279.584,199.488, 283.328,204.8, 288.96,209.376l 10.336,8.416c 10.464,8.544, 17.536,15.584, 21.248,21.088c 6.272,9.056, 9.472,20.224, 9.472,33.472
			c0,21.6-7.328,37.92-21.856,48.896S 275.36,337.76, 253.376,337.76c-16.736,0-30.848-3.872-42.336-11.584C 192.864,314.048, 183.2,293.44, 182.016,264.416
			l 42.176,0 C 224.192,272.864, 226.56,281.024, 231.264,288.864z M 235.296,110.208l 43.648,0 l0,44.16 L 235.296,154.368 L 235.296,110.208 z" data-tags="question-device" />
<glyph unicode="&#xe009;" d="M 401.024,363.712L 401.024,463.648 L 111.168,463.648 l0-99.968 L0,363.68 l0-78.336 l0-184.768 l 111.168,0 l0-116.256 l 206.144,0 l0,0.256 l 83.712,83.552l0,32.448 L 512,100.576 L 512,285.376 L 512,363.712 L 401.024,363.712 z
		 M 476.448,328.384l0-32.736 l-64.448,0 L 412,328.384 L 476.448,328.384 z M 144.48,430.336l 223.232,0 l0-66.656 L 144.48,363.68 L 144.48,430.336 z M 284,17.664l-139.52,0 l0,164.16 L 144.48,215.136 L 111.168,215.136 l0-10.688 
		l0-68.256 L 71.424,136.192 L 71.424,257.12 l 370.88,0 l0-120.928 l-41.28,0 L 401.024,215.136 l-33.312,0 l0-33.312 l0-80.352 L 284,101.472 L 284,17.664 z" data-tags="print" />
<glyph unicode="&#xe00a;" d="M 504.992,48.512l-3.104,3.104l0,0l-123.424,123.52c 17.152,29.568, 27.136,63.872, 27.36,100.512C 406.528,387.808, 316.288,479.296, 204.192,480
	C 203.744,480, 203.328,480, 202.88,480C 91.424,480, 0.704,389.92,0,278.24c-0.704-112.16, 89.536-203.648, 201.6-204.384c 0.448,0, 0.864,0, 1.344,0
	c 37.248,0, 72.16,10.112, 102.176,27.68l 123.328-123.424l0,0l 3.072-3.104c 9.344-9.344, 24.48-9.344, 33.824,0l 39.648,39.712
	C 514.336,24.032, 514.336,39.168, 504.992,48.512z M 201.952,125.664C 118.592,126.176, 51.2,194.496, 51.744,277.888c 0.512,82.88, 68.32,150.304, 151.136,150.304
	l 0.992,0 c 40.384-0.256, 78.24-16.224, 106.592-44.96c 28.384-28.736, 43.872-66.848, 43.616-107.296c-0.288-40.224-16.128-78.016-44.64-106.336
	c-28.544-28.384-66.368-43.968-106.528-43.968L 201.952,125.632 z" data-tags="preview" />
<glyph unicode="&#xe00b;" d="M 240.032,45.12c 5.216-2.176, 8.576-7.552, 8.384-13.504c-0.224-5.888-3.936-11.008-9.28-12.768l-53.056-17.6
	c-10.368-3.424-21.632,0.544-27.936,9.856l-56.128,83.104l 78.24,25.984l 35.168-54.496c 5.92-9.184, 14.304-16.256, 24.064-20.352L 240.032,45.12z
	 M 125.472,301.024L 54.464,277.44C 13.472,263.872-9.312,217.888, 3.616,174.72c 12.928-43.136, 56.608-67.104, 97.568-53.504l 71.040,23.52L 125.472,301.024z
	 M 151.2,309.632l 46.784-156.416c 50.496,9.312, 118.88,10.688, 210.336-14.016L 316,448C 252.8,370.56, 197.12,332.192, 151.2,309.632z M 376.8,360.224
	c 17.984-9.824, 32.416-26.88, 38.976-48.832c 6.592-21.952, 4.096-44.64-5.248-63.552l 29.536-16.224c 13.312,26.88, 16.864,59.136, 7.488,90.336
	c-9.312,31.2-29.792,55.424-55.328,69.408L 376.8,360.224z M 403.776,414.72c 31.232-17.12, 56.224-46.72, 67.648-84.832s 7.072-77.536-9.184-110.432
	l 30.304-16.608c 20.256,41.024, 25.728,90.272, 11.424,137.856c-14.24,47.584-45.44,84.576-84.448,105.952L 403.776,414.72z" data-tags="megaphone" />
<glyph unicode="&#xe00c;" d="M0,430.208l0-412.448 l 512,0 L 512,430.208 L0,430.208 z M 469.344,60.48L 42.656,60.48 L 42.656,387.552 l 426.656,0 L 469.312,60.48 zM 352.896,132.704c0,0-0.192,16-32.96,30.592c-15.872,7.040-39.424,25.216-74.368,31.456c 8.928,9.568, 15.712,24.512, 22.656,42.208
		C 272.256,247.264, 271.52,256, 271.52,268.448c0,9.216, 1.792,23.936-0.544,32.064C 263.328,327.904, 243.84,335.424, 221.056,335.424
		c-22.816,0-42.272-7.584-49.984-35.008c-2.24-8.128-0.512-22.848-0.512-32c0-12.48-0.672-21.248, 3.36-31.52
		c 7.008-17.792, 13.664-32.704, 22.56-42.24C 161.856,188.352, 138.464,170.272, 122.656,163.264c-32.672-14.56-32.832-30.528-32.832-30.528l0-27.104 l 263.072,0.064
		L 352.896,132.704 zM 308.928,327.456L 415.392,327.456L 415.392,306.4L 308.928,306.4zM 308.928,277.6L 371.808,277.6L 371.808,256.576L 308.928,256.576zM 308.928,228.192L 397.792,228.192L 397.792,207.168L 308.928,207.168z" data-tags="info" />
<glyph unicode="&#xe00d;" d="M 177.92,480l0-0.32 L 71.104,372.704L 71.104-32 l 369.824,0 L 440.928,480 L 177.92,480 z M 398.4,10.656l-284.8,0 L 113.6,330.048 l 106.816,0 L 220.416,437.344 l 177.984,0 L 398.4,10.656 z M 205.6,230.432l 161.184,0 
			L 366.784,265.984 L 205.6,265.984 L 205.6,230.432 z M 205.6,154.88l 161.184,0 L 366.784,190.4 L 205.6,190.4 L 205.6,154.88 z M 205.6,78.88l 161.184,0 l0,35.52 L 205.6,114.4 L 205.6,78.88 z M 163.84,265.984
			c-9.792,0-17.696-7.968-17.696-17.76S 154.048,230.496, 163.84,230.496c 9.76,0, 17.664,7.968, 17.664,17.76S 173.6,265.984, 163.84,265.984z M 163.84,190.496
			c-9.792,0-17.696-7.936-17.696-17.76s 7.904-17.76, 17.696-17.76c 9.76,0, 17.664,7.936, 17.664,17.76S 173.6,190.496, 163.84,190.496z
			 M 163.84,114.656c-9.792,0-17.696-7.936-17.696-17.728c0-9.824, 7.904-17.76, 17.696-17.76c 9.76,0, 17.664,7.936, 17.664,17.76
			C 181.504,106.72, 173.6,114.656, 163.84,114.656z" data-tags="document" />
<glyph unicode="&#xe00e;" d="M 363.68,480L 148.288,480 C 127.68,480, 111.008,463.264, 111.008,442.688l0-437.408 C 111.008-15.328, 127.68-32, 148.288-32l 215.392,0 
	c 20.64,0, 37.312,16.672, 37.312,37.28L 400.992,442.688 C 400.992,463.264, 384.32,480, 363.68,480z M 231.616,448.224l 48.736,0 l0-16.192 L 231.616,432.032 L 231.616,448.224 z M 256.032-12.448
	c-13.12,0-23.776,10.624-23.776,23.776c0,13.12, 10.656,23.744, 23.776,23.744c 13.088,0, 23.744-10.624, 23.744-23.744
	C 279.776-1.824, 269.12-12.448, 256.032-12.448z M 373.088,50.080L 138.976,50.080 L 138.976,397.888 l 234.112,0 L 373.088,50.080 z" data-tags="device" />
<glyph unicode="&#xe00f;" d="M 432.704,426.656L 186.048,179.872L 79.232,286.816L0,207.52l 186.080-186.176L 512,347.392L 432.704,426.656z" data-tags="checkmark" />
<glyph unicode="&#xe010;" d="M 242.336,430.304c 89.056,0, 53.664-115.2, 53.664-115.2s 119.36,29.44, 119.36-58.176c0-39.456,0-239.232,0-239.232L 96.608,17.696 L 96.608,430.304 
	C 244.32,430.304, 202.336,430.304, 242.336,430.304z M 323.008,453.952C 306.304,470.656, 283.712,480, 260.032,480L 46.656,480 l0-512 l 418.656,0 L 465.312,274.88 
	c0,23.328-9.248,45.696-25.76,62.24L 323.008,453.952z M 321.376,255.904L 230.144,165.12L 190.656,204.448L 161.344,175.264l 68.8-68.512l 120.544,120
	L 321.376,255.904z" data-tags="checked" />
<glyph unicode="&#xe011;" d="M 259.936,439.52c-141.344,2.72-257.728-82.528-259.904-190.4
	c-0.768-37.504, 12.384-72.832, 35.808-103.040l0,0c 40.256-50.624-3.68-137.696-3.68-137.696l 129.76,54.688c 27.968-8.64, 58.304-13.696, 90.144-14.24
	c 141.344-2.752, 257.728,82.528, 259.904,190.4C 514.112,347.136, 401.28,436.8, 259.936,439.52z" data-tags="chat" />
<glyph unicode="&#xe012;" d="M 357.824,110.496L 305.184,110.496 l0-52.576 l 52.64,0 L 357.824,110.496 z M 283.648,251.296L 231.072,251.296 l0-52.608 l 52.608,0 L 283.68,251.296 z M 357.824,180.864L 305.184,180.864 l0-52.576 l 52.64,0 L 357.824,180.864 z
	 M 431.872,251.296l-52.608,0 l0-52.608 l 52.608,0 L 431.872,251.296 z M 283.648,180.864L 231.072,180.864 l0-52.576 l 52.608,0 L 283.68,180.864 z M 357.824,251.296L 305.184,251.296 l0-52.608 l 52.64,0 L 357.824,251.296 z
	 M 431.872,180.864l-52.608,0 l0-52.576 l 52.608,0 L 431.872,180.864 z M 135.424,110.496L 82.848,110.496 l0-52.576 l 52.608,0 L 135.456,110.496 z M 135.424,180.864L 82.848,180.864 l0-52.576 l 52.608,0 L 135.456,180.864 z
	 M 418.336,436.736l0-23.104 c 9.056-8.032, 14.848-19.744, 14.848-32.8c0-24.192-19.616-43.808-43.84-43.808c-24.192,0-43.808,19.616-43.808,43.808
	c0,13.088, 5.76,24.768, 14.816,32.8L 360.352,436.736 L 155.616,436.736 l0-23.104 C 164.672,405.632, 170.432,393.92, 170.432,380.864c0-24.192-19.584-43.808-43.808-43.808
	c-24.192,0-43.808,19.616-43.808,43.808c0,13.088, 5.76,24.768, 14.848,32.8L 97.664,436.736 L0,436.736 l0-466.24 l 512,0 L 512,436.736 L 418.336,436.736 z M 465.248,17.248L 46.784,17.248 L 46.784,308.544 
	l 418.464,0 L 465.248,17.248 z M 209.6,251.296L 156.96,251.296 l0-52.608 L 209.6,198.688 L 209.6,251.296 z M 209.6,110.496L 156.96,110.496 l0-52.576 L 209.6,57.92 L 209.6,110.496 z M 283.648,110.496L 231.072,110.496 l0-52.576 l 52.608,0 
	L 283.68,110.496 z M 209.6,180.864L 156.96,180.864 l0-52.576 L 209.6,128.288 L 209.6,180.864 z M 126.624,355.328c 12.064,0, 21.824,9.76, 21.824,21.824L 148.448,455.712 c0,12.032-9.76,21.824-21.824,21.824
	c-12.032,0-21.824-9.76-21.824-21.824l0-78.56 C 104.8,365.088, 114.592,355.328, 126.624,355.328z M 389.344,355.328c 12.032,0, 21.824,9.76, 21.824,21.824
	L 411.168,455.712 c0,12.032-9.792,21.824-21.824,21.824s-21.824-9.76-21.824-21.824l0-78.56 C 367.52,365.088, 377.312,355.328, 389.344,355.328z" data-tags="cal" />
<glyph unicode="&#xe001;" d="M 346.368,415.52c 4.288-17.376, 4.704-18.816, 4.352-36.672c-0.16-6.912-4.128-38.72-3.072-48.48
	c 0.864-8.032, 2.912-8.704, 6.048-15.328c 5.536-11.552, 3.68-27.488, 1.568-39.104c-1.152-6.368-3.616-15.424-7.328-20.672
	c-4.096-5.728-12.32-5.76-16-12.448c-5.216-9.6-2.272-23.136-5.568-33.536c-3.744-11.776-13.28-12.64-14.016-28.032
	c 4.672-0.672, 9.344-1.344, 14.016-1.984c 4.672-9.984, 13.28-30.016, 22.016-36.064c 7.36-1.984, 14.72-4, 22.048-6.016
	c 25.76-10.56, 54.336-23.2, 80.16-34.080c 23.52-9.92, 51.648-13.408, 60.16-38.080c0-16.672, 1.568-56.224, 1.12-78.112L 0.096-13.088 
	c-0.48,21.92, 1.152,61.44, 1.152,78.112c 8.48,24.672, 36.608,28.192, 60.096,38.080c 25.824,10.912, 54.4,23.52, 80.16,34.080
	c 7.328,1.984, 14.656,4, 22.016,6.016c 8.768,6.016, 17.344,26.080, 22.016,36.064L 196.032,181.76C 193.664,194.912, 185.504,195.968, 182.112,205.28
	C 180.768,219.264, 179.456,233.312, 178.112,247.328c 0.032-0.672-9.6,1.792-10.848,2.56c-13.6,8.544-13.888,43.2-15.232,57.568
	C 151.456,314.016, 160.608,319.456, 158.048,331.488C 143.168,402.208, 164.512,435.264, 198.272,446.24c 23.424,9.536, 67.232,27.136, 108.064,2.016L 316.48,438.848
	l 16.416-2.816C 341.088,431.296, 346.368,415.52, 346.368,415.52z" data-tags="user" />
<glyph unicode="&#xe013;" d="M 507.331,68.67c-0.002,0.002-0.004,0.004-0.006,0.005L 352.003,224l 155.322,155.325c 0.002,0.002, 0.004,0.003, 0.006,0.005
		c 1.672,1.673, 2.881,3.627, 3.656,5.708c 2.123,5.688, 0.912,12.341-3.662,16.915L 433.952,475.326c-4.574,4.573-11.225,5.783-16.914,3.66
		c-2.080-0.775-4.035-1.984-5.709-3.655c0-0.002-0.002-0.003-0.004-0.005L 256.001,320L 100.677,475.325
		c-0.002,0.002-0.003,0.003-0.005,0.005c-1.673,1.671-3.627,2.88-5.707,3.655c-5.69,2.124-12.341,0.913-16.915-3.66L 4.676,401.951
		c-4.574-4.574-5.784-11.226-3.661-16.914c 0.776-2.080, 1.985-4.036, 3.656-5.708c 0.002-0.001, 0.003-0.003, 0.005-0.005L 160.001,224
		L 4.676,68.674c-0.001-0.002-0.003-0.003-0.004-0.005c-1.671-1.673-2.88-3.627-3.657-5.707c-2.124-5.688-0.913-12.341, 3.661-16.915
		l 73.374-73.373c 4.575-4.574, 11.226-5.784, 16.915-3.661c 2.080,0.776, 4.035,1.985, 5.708,3.656c 0.001,0.002, 0.003,0.003, 0.005,0.005
		l 155.324,155.325l 155.324-155.325c 0.002-0.001, 0.004-0.003, 0.006-0.004c 1.674-1.672, 3.627-2.881, 5.707-3.657
		c 5.689-2.123, 12.342-0.913, 16.914,3.661l 73.373,73.374c 4.574,4.574, 5.785,11.227, 3.662,16.915
		C 510.212,65.043, 509.003,66.997, 507.331,68.67z" data-tags="close, cancel, quit, remove, cross" />
<glyph unicode="&#xe014;" d="M 496,288L 320,288 L 320,464 c0,8.836-7.164,16-16,16l-96,0 c-8.836,0-16-7.164-16-16l0-176 L 16,288 c-8.836,0-16-7.164-16-16l0-96 
	c0-8.836, 7.164-16, 16-16l 176,0 l0-176 c0-8.836, 7.164-16, 16-16l 96,0 c 8.836,0, 16,7.164, 16,16L 320,160 l 176,0 c 8.836,0, 16,7.164, 16,16l0,96 
	C 512,280.836, 504.836,288, 496,288z" data-tags="plus, add, sum" />
<glyph unicode="&#xe000;" d="M0,333.696C0,337.248, 0.704,340.8, 2.144,344.224c 4.416,10.24, 14.784,16.928, 26.304,16.928l 455.104,0 c 11.488,0, 21.888-6.688, 26.272-16.928
	c 1.472-3.392, 2.176-6.976, 2.176-10.528c0-7.136-2.944-14.112-8.384-19.36l-227.552-219.456C 270.56,89.536, 263.296,86.848, 256,86.848
	c-7.264,0-14.56,2.688-20.096,8.032L 8.352,314.336C 2.88,319.552,0,326.56,0,333.696z" data-tags="arr-down" />
<glyph unicode="&#xe015;" d="M 365.696,480c 3.552,0.032, 7.136-0.672, 10.528-2.144c 10.24-4.416, 16.928-14.784, 16.928-26.272l0-455.136 c0-11.488-6.688-21.888-16.928-26.24
	C 372.8-31.328, 369.248-32, 365.696-32c-7.136,0-14.112,2.944-19.36,8.384l-219.424,227.52C 121.536,209.472, 118.848,216.704, 118.848,224
	c0,7.264, 2.688,14.528, 8.032,20.096l 219.424,227.552C 351.552,477.12, 358.56,480, 365.696,480z" data-tags="arr-left" />
<glyph unicode="&#xe016;" d="M 165.696,471.648l 219.424-227.552C 390.464,238.528, 393.152,231.264, 393.152,224c0-7.296-2.688-14.528-8.032-20.096l-219.424-227.52
	C 160.448-29.056, 153.44-32, 146.304-32c-3.552,0-7.136,0.672-10.528,2.176c-10.24,4.384-16.928,14.752-16.928,26.24L 118.848,451.552 
	c0,11.488, 6.688,21.888, 16.928,26.272C 139.2,479.328, 142.752,480.032, 146.304,480C 153.44,480, 160.448,477.12, 165.696,471.648z" data-tags="arr-right" />
<glyph unicode="&#xe017;" d="M 8.32,133.696l 227.552,219.424C 241.44,358.464, 248.704,361.152, 256,361.152c 7.296,0, 14.56-2.688, 20.096-8.032l 227.52-219.424
	C 509.056,128.448, 512,121.44, 512,114.304c0-3.552-0.672-7.136-2.176-10.528c-4.384-10.24-14.752-16.928-26.24-16.928L 28.448,86.848 
	c-11.488,0-21.888,6.688-26.304,16.928C 0.672,107.2-0.032,110.752,0,114.304C0,121.44, 2.88,128.448, 8.32,133.696z" data-tags="arr-up" />
<glyph unicode="&#xe018;" d="M 1384.663,377.628c-7.73,0-14.969-2.037-21.24-5.527c 4.514-2.208, 8.715-4.872, 12.338-8.17c 7.917-7.223, 12.128-16.56, 12.172-27.004
		c 0.050-10.449-4.085-19.797-11.93-27.020c-3.969-3.65-8.621-6.573-13.675-8.908c 6.524-3.672, 14.154-5.77, 22.33-5.77
		c 23.596,0, 41.527,17.914, 41.527,40.85C 1426.184,358.282, 1408.259,377.628, 1384.663,377.628zM 1292.949,361.018c-0.407-1.162-673.495-18.157-689.796-19.109c 0.011-4.371, 0.011-5.77, 0.022-10.135
		c 16.208-0.947, 689.796-19.027, 689.796-19.027c 29.035-2.527, 53.49,1.965, 64.088,11.726c 3.81,3.507, 5.571,7.438, 5.549,12.371
		c-0.022,4.96-1.833,8.919-5.72,12.464C 1346.153,359.074, 1321.654,363.561, 1292.949,361.018zM 218.211-25.575l-8.605,23.673c-12.916-8.792-50.969-29.746-104.795-29.746C 11.49-31.648,0,32.573,0,57.594L0,76.533 
		c0,85.185, 150.743,89.914, 170.122,89.914l 34.464,0 L 204.58,177.942 c0,12.167,0,21.636-5.742,33.12c-7.174,13.527-22.974,27.053-62.442,27.053
		c-76.811,0-81.116-27.053-81.116-34.48l0-21.642 L 17.953,181.999 L 17.953,240.813 c 2.863,2.026, 53.116,26.371, 117.71,26.371
		c 64.617,0, 148.607-19.605, 148.607-91.951l0-200.809 L 218.211-25.57 z M 204.58,138.727c0,0-5.026,0-15.074,0c-81.837,0-112.701-29.063-112.701-64.226
		c0,0,0-4.057,0-12.172c0-32.449, 9.326-55.445, 71.779-55.445c 35.895,0, 48.106,14.876, 55.995,19.605L 204.585,138.727 zM 468.86-33.674c-134.243,0-130.648,74.372-130.648,74.372l 35.179,2.026c0,0, 5.015-46.653, 84.7-46.653
		c 56.711,0, 55.268,34.48, 55.268,44.627l0,6.083 c0,8.781-9.326,30.417-35.873,38.543c-28.011,8.776-49.532,16.219-69.638,24.339
		c-43.79,17.573-60.3,50.027-60.3,70.986l0,10.141 c0,60.168, 66.042,76.398, 109.827,76.398c 45.232,0, 105.527-15.553, 105.527-15.553l0-77.752 l-35.895,0 
		l0,21.642 c0,5.406-0.721,47.324-56.7,47.324c-35.179,0-57.432-13.521-57.432-41.241l0-8.12 c0-19.605, 10.769-28.397, 37.326-37.178
		c 19.373-6.766, 41.643-14.215, 72.506-23.673c 27.279-8.792, 70.348-31.777, 70.348-78.43c0-5.412,0-4.052,0-8.787
		C 593.039,30.552, 589.455-33.674, 468.86-33.674zM 870.119-25.575L 862.935,6.218c-12.927-10.824-51.679-35.84-115.574-35.84c-83.258,0-93.322,68.294-93.322,104.123l0,130.483 
		c0,12.161-2.147,29.068-17.942,31.777c-2.863,0-5.742,0-7.185,0l-25.837,0 l0,25.683 l 129.211,0 l0-177.13 c0-58.153, 6.463-82.493, 53.116-82.493
		c 35.179,0, 67.479,27.72, 75.385,33.803L 860.788,262.45 l 78.237,0 l0-288.019 L 870.119-25.57 zM 1225.018,178.619l0,20.953 c0,10.146-2.874,22.99-22.264,22.99c-30.142,0-57.41-20.953-73.921-41.918
		c-5.037-5.406-5.037-8.787-5.037-8.787l0-0.683 l0-196.751 l-78.237,0 l0,231.231 c0,31.1-15.074,31.777-24.4,31.777l-26.569,0 l0,25.688 l 129.211,0 l0-43.272 
		c 15.085,16.907, 48.816,46.647, 101.932,46.647l 31.595,0 l0-87.888 L 1225.018,178.614 zM 1345.883-25.575L 1345.883,204.99 c0,13.521-0.732,29.068-17.953,31.1c-4.305,0.677-9.326,0.677-13.631,0.677l-19.395,0 l0,26.365 l 129.222,0 l0-288.696 
		L 1345.883-25.57 zM 1649.196-31.648c-59.557,0-165.816,25.688-165.816,127.78l0,43.949 c0,102.081, 103.369,127.78, 165.816,127.78
		c 61.748,0, 164.396-25.699, 164.396-127.78l0-43.949 C 1813.598-5.96, 1708.781-31.648, 1649.196-31.648z M 1735.339,136.701
		c0,83.153-51.679,104.112-86.137,104.112c-35.157,0-87.558-20.959-87.558-104.112l0-38.543 c0-83.159, 53.826-103.446, 87.558-103.446
		c 33.742,0, 86.137,20.287, 86.137,103.446L 1735.339,136.701 zM 2094.972-25.575L 2094.972,148.868 c0,48.679-7.922,85.873-55.279,85.873c-45.931,0-70.359-30.428-78.259-37.194l0-223.116 l-78.237,0 l0,231.231 
		c0,31.1-14.353,31.777-31.584,31.777l-19.373,0 l0,25.688 l 129.2,0 l0-33.126 c 17.221,12.161, 43.812,37.189, 95.491,37.189
		c 71.779,0, 116.274-43.272, 116.274-112.915l0-121.702 c0-28.391, 10.769-31.772, 27.279-31.772l 23.695,0 l0-26.376 L 2094.972-25.575 zM 1387.432,481.674c-63.604,0-119.665-44.511-134.441-106.171l 25.622,0.892c 14.49,47.864, 58.285,80.786, 108.819,80.786
		c 62.767,0, 113.829-51.068, 113.829-113.829c0-30.169-11.93-58.781-33.005-80.037l 31.92,0 c 16.494,23.161, 25.606,51.002, 25.606,80.037
		C 1525.782,419.617, 1463.714,481.674, 1387.432,481.674z" horiz-adv-x="2224.172" data-tags="logo" />
<glyph unicode="&#x20;" horiz-adv-x="256" />
</font>
</defs>
</svg>
