<?xml version="1.0" encoding="utf-8"?>
<!-- Generator: Adobe Illustrator 16.0.4, SVG Export Plug-In . SVG Version: 6.00 Build 0)  -->
<!DOCTYPE svg PUBLIC "-//W3C//DTD SVG 1.1//EN" "http://www.w3.org/Graphics/SVG/1.1/DTD/svg11.dtd">
<svg version="1.1" id="Layer_1" xmlns="http://www.w3.org/2000/svg" xmlns:xlink="http://www.w3.org/1999/xlink" x="0px" y="0px"
	 width="125px" height="55px" viewBox="0 0 125 55" enable-background="new 0 0 125 55" xml:space="preserve">
<g>
	<path fill="#2B2523" d="M4.805,46.022c-1.442,0-2.859-0.176-4.008-0.47l0.177-3.037c1.121,0.415,2.682,0.736,4.125,0.736
		c2.182,0,3.95-0.912,3.95-3.062c0-4.187-8.694-2.416-8.694-8.842c0-3.421,2.681-5.807,7.31-5.807c1.176,0,2.387,0.147,3.596,0.354
		l-0.177,2.859c-1.15-0.354-2.417-0.56-3.596-0.56c-2.477,0-3.743,1.149-3.743,2.8c0,3.979,8.695,2.505,8.695,8.721
		C12.439,43.371,9.551,46.022,4.805,46.022"/>
	<path fill="#2B2523" d="M20.188,45.933c-0.824,0-1.442-0.028-2.21-0.175v6.377h-3.151V31.082h2.975c0,0.767-0.031,1.945-0.178,2.74
		h0.06c0.825-1.856,2.504-3.035,4.744-3.035c3.477,0,5.394,2.477,5.394,6.896C27.82,42.841,25.081,45.933,20.188,45.933
		 M21.602,33.382c-2.357,0-3.625,2.771-3.625,5.273v4.51c0.678,0.206,1.415,0.297,2.299,0.297c2.504,0,4.216-1.534,4.216-5.483
		C24.492,35.032,23.578,33.382,21.602,33.382z"/>
	<path fill="#2B2523" d="M37.934,33.881c-2.92-0.529-4.333,1.505-4.333,5.895v5.953h-3.154V31.082h3.008
		c0,0.824-0.089,2.12-0.297,3.243h0.059c0.648-1.976,2.125-3.805,4.864-3.538L37.934,33.881"/>
	<path fill="#2B2523" d="M42.434,28.9c-1.119,0-2.033-0.883-2.033-1.974c0-1.088,0.914-1.976,2.033-1.976
		c1.092,0,2.005,0.856,2.005,1.976C44.439,28.018,43.526,28.9,42.434,28.9 M43.997,45.729h-3.153V31.082h3.153V45.729z"/>
	<path fill="#2B2523" d="M56.964,45.729v-9.432c0-1.826-0.501-2.886-2.179-2.886c-2.21,0-3.832,2.328-3.832,5.244v7.073h-3.155
		V31.082h3.007c0,0.767-0.059,2.033-0.206,2.859l0.029,0.028c0.854-1.887,2.624-3.183,5.099-3.183c3.327,0,4.36,2.091,4.36,4.686
		v10.256H56.964"/>
	<path fill="#2B2523" d="M68.777,45.993c-3.124,0-4.067-1.208-4.067-4.479v-7.986h-2.797v-2.446h2.797v-4.657l3.124-0.854v5.512
		h3.859v2.446h-3.83v7.012c0,2.186,0.444,2.771,1.915,2.771c0.648,0,1.355-0.088,1.915-0.234v2.592
		C70.84,45.847,69.749,45.993,68.777,45.993"/>
	<path fill="#FBD600" d="M99.105,36.513c4.924-6.343,8.798-13.789,8.798-19.141c0-2.794-2.002-4.746-4.612-6.229
		C103.342,16.957,101.328,30.587,99.105,36.513"/>
	<path fill="#FBD600" d="M82.952,52.135c11.545-3.862,28.279-12.86,39.92-20.897c0.973-0.672,1.738-1.299,1.738-2.39
		c0-1.9-3.478-4.444-5.166-5.459C110.284,32.912,92.058,47.175,82.952,52.135"/>
	<path fill="#FBD600" d="M93.662,44.047c7.116-4.924,17.46-14.182,20.957-19.218c0.826-1.185,1.435-1.871,1.435-3.111
		c0-2.033-2.367-3.523-4.074-4.559C107.893,26.793,98.706,38.79,93.662,44.047"/>
	<path fill="#FBD600" d="M100.146,30.398c0.92-6.087,0.38-13.431-0.796-18.037c-0.64-2.508-2.901-5.341-4.991-6.224
		C97.101,13.92,99.455,25.006,100.146,30.398"/>
	<path fill="#FBD600" d="M98.121,21.862c-2.16-5.83-7.536-17.98-15.442-20.991C87.827,6.553,95.465,17.825,98.121,21.862"/>
	<polyline fill="#2B2523" points="106.115,44.068 106.115,45.729 105.859,45.729 105.859,44.068 105.32,44.068 105.32,43.854 
		106.658,43.854 106.658,44.068 106.115,44.068 	"/>
	<path fill="#2B2523" d="M108.924,45.729l-0.156-1.083c-0.031-0.215-0.049-0.35-0.06-0.462h-0.004
		c-0.021,0.09-0.051,0.205-0.093,0.342l-0.402,1.203h-0.271l-0.383-1.123c-0.047-0.144-0.098-0.297-0.119-0.422h-0.003
		c-0.01,0.154-0.031,0.304-0.052,0.487l-0.129,1.058h-0.261l0.275-1.875h0.313l0.393,1.18c0.05,0.137,0.085,0.262,0.106,0.372h0.008
		c0.027-0.127,0.055-0.222,0.1-0.356l0.408-1.195h0.317l0.28,1.875H108.924"/>
	<path fill="#2B2523" d="M73.766,28.035c-0.703,0-1.233-0.541-1.233-1.233c0-0.677,0.554-1.231,1.233-1.231
		c0.695,0,1.229,0.536,1.229,1.231C74.995,27.47,74.431,28.035,73.766,28.035 M73.766,25.809c-0.542,0-0.978,0.44-0.978,0.983
		c0,0.542,0.436,1.007,0.978,1.007c0.541,0,0.976-0.443,0.976-0.983C74.741,26.274,74.307,25.809,73.766,25.809z M74.009,27.487
		l-0.403-0.624h-0.014v0.624h-0.22v-1.386h0.394c0.327,0,0.459,0.136,0.459,0.344c0,0.237-0.148,0.379-0.375,0.404
		c0.027,0.036,0.084,0.112,0.137,0.197l0.302,0.44H74.009z M73.754,26.28h-0.162v0.44h0.103c0.232,0,0.302-0.13,0.302-0.244
		C73.996,26.339,73.934,26.28,73.754,26.28z"/>
</g>
</svg>
