<?xml version="1.0" encoding="utf-8"?>
<!-- Generator: Adobe Illustrator 16.0.4, SVG Export Plug-In . SVG Version: 6.00 Build 0)  -->
<!DOCTYPE svg PUBLIC "-//W3C//DTD SVG 1.1//EN" "http://www.w3.org/Graphics/SVG/1.1/DTD/svg11.dtd">
<svg version="1.1" id="Layer_1" xmlns="http://www.w3.org/2000/svg" xmlns:xlink="http://www.w3.org/1999/xlink" x="0px" y="0px"
	 width="17.168px" height="17.168px" viewBox="0 0 17.168 17.168" enable-background="new 0 0 17.168 17.168" xml:space="preserve">
<g>
	<path fill="#777776" d="M17.168,15.022c0,1.186-0.961,2.146-2.145,2.146H2.146C0.961,17.168,0,16.208,0,15.022V2.146
		C0,0.961,0.961,0,2.146,0h12.877c1.184,0,2.146,0.961,2.146,2.146v12.876H17.168z"/>
	<path fill="#FFFFFF" d="M14.391,5.273c-0.4,0.177-0.832,0.298-1.285,0.352c0.463-0.277,0.816-0.715,0.984-1.237
		c-0.432,0.256-0.91,0.441-1.42,0.542c-0.406-0.434-0.988-0.706-1.631-0.706c-1.234,0-2.235,1-2.235,2.234
		c0,0.175,0.021,0.346,0.059,0.51C7.005,6.875,5.359,5.985,4.258,4.634c-0.193,0.33-0.303,0.714-0.303,1.123
		c0,0.775,0.395,1.459,0.994,1.859C4.583,7.604,4.238,7.505,3.936,7.337c0,0.01,0,0.02,0,0.027c0,1.084,0.77,1.986,1.792,2.191
		C5.54,9.608,5.344,9.633,5.14,9.633c-0.145,0-0.285-0.014-0.422-0.039c0.284,0.889,1.109,1.533,2.086,1.553
		c-0.765,0.6-1.729,0.957-2.774,0.957c-0.18,0-0.359-0.012-0.534-0.033c0.989,0.635,2.164,1.006,3.426,1.006
		c4.11,0,6.358-3.404,6.358-6.358c0-0.097-0.002-0.192-0.006-0.29C13.713,6.114,14.09,5.721,14.391,5.273z"/>
</g>
</svg>
